<?xml version="1.0" standalone="no"?><!DOCTYPE svg PUBLIC "-//W3C//DTD SVG 1.1//EN" "http://www.w3.org/Graphics/SVG/1.1/DTD/svg11.dtd"><svg t="1522047247034" class="icon" style="" viewBox="0 0 1024 1024" version="1.1" xmlns="http://www.w3.org/2000/svg" p-id="4690" xmlns:xlink="http://www.w3.org/1999/xlink" width="32" height="32"><defs><style type="text/css"></style></defs><path d="M511.8 959.4c-6.4 0-12.8-2.4-17.7-7.3l-229-229c-12.9-11.4-35-35.1-37.5-37.8-0.2-0.2-0.5-0.5-0.7-0.8-58-67.8-89.9-154.2-89.9-243.3 0-114.2 51.1-220.7 140.3-292.3 10.8-8.6 26.5-6.9 35.1 3.8 8.6 10.8 6.9 26.5-3.8 35.1-77.3 62-121.6 154.4-121.6 253.3 0 77.1 27.5 151.8 77.6 210.4 6.8 7.3 25 26.5 34 34.4 0.4 0.4 0.8 0.8 1.3 1.2L511.8 899l211.9-211.9c0.4-0.4 0.8-0.8 1.3-1.2 9-7.8 27.2-27.1 34-34.4 50-58.7 77.6-133.4 77.6-210.4 0-179-145.6-324.7-324.7-324.7-26 0-51.9 3.1-76.9 9.2-13.4 3.3-26.9-5-30.2-18.4s5-26.9 18.4-30.2c28.9-7 58.7-10.6 88.7-10.6 50.6 0 99.6 9.9 145.8 29.5 44.6 18.9 84.7 45.9 119.1 80.3 34.4 34.4 61.4 74.5 80.3 119.1 19.5 46.2 29.5 95.3 29.5 145.8 0 89.1-31.9 175.5-89.9 243.3-0.2 0.3-0.4 0.5-0.7 0.8-2.5 2.7-24.6 26.4-37.5 37.8l-229 229c-5 5-11.4 7.4-17.7 7.4z" p-id="4691"></path><path d="M511.8 573.8c-79.7 0-144.5-64.8-144.5-144.5s64.8-144.5 144.5-144.5 144.5 64.8 144.5 144.5-64.9 144.5-144.5 144.5z m0-239.1c-52.1 0-94.5 42.4-94.5 94.5s42.4 94.5 94.5 94.5 94.5-42.4 94.5-94.5-42.4-94.5-94.5-94.5z" p-id="4692"></path></svg>