<?xml version="1.0" standalone="no"?><!DOCTYPE svg PUBLIC "-//W3C//DTD SVG 1.1//EN" "http://www.w3.org/Graphics/SVG/1.1/DTD/svg11.dtd"><svg t="1522047205618" class="icon" style="" viewBox="0 0 1024 1024" version="1.1" xmlns="http://www.w3.org/2000/svg" p-id="3713" xmlns:xlink="http://www.w3.org/1999/xlink" width="32" height="32"><defs><style type="text/css"></style></defs><path d="M511.3 959.5c-60.4 0-119-11.8-174.1-35.2-53.3-22.5-101.1-54.8-142.2-95.9-41.1-41.1-73.3-88.9-95.9-142.2C75.8 631.1 64 572.5 64 512.1c0-87.8 25.4-172.8 73.5-245.8 7.6-11.5 23.1-14.7 34.6-7.1s14.7 23.1 7.1 34.6C136.5 358.6 114 434.1 114 512.1c0 219.1 178.3 397.4 397.4 397.4 219.1 0 397.4-178.3 397.4-397.4 0-219.1-178.3-397.4-397.4-397.4C440 114.8 370 133.9 309 170c-11.9 7-27.2 3.1-34.3-8.8-7-11.9-3.1-27.2 8.8-34.3C352.3 86.3 431 64.8 511.3 64.8c60.4 0 119 11.8 174.1 35.2 53.3 22.5 101.1 54.8 142.2 95.9 41.1 41.1 73.3 88.9 95.9 142.2 23.3 55.2 35.2 113.8 35.2 174.1 0 60.4-11.8 119-35.2 174.1-22.5 53.3-54.8 101.1-95.9 142.2s-88.9 73.3-142.2 95.9c-55.1 23.3-113.7 35.1-174.1 35.1z" p-id="3714"></path><path d="M671.5 668.2c-5.6 0-11.2-1.9-15.8-5.7l-160.2-131c-5.8-4.7-9.2-11.9-9.2-19.3V320.8c0-13.8 11.2-25 25-25s25 11.2 25 25v179.4l151 123.6c10.7 8.7 12.3 24.5 3.5 35.2-4.8 6.1-12 9.2-19.3 9.2z" p-id="3715"></path></svg>