<?xml version="1.0" standalone="no"?><!DOCTYPE svg PUBLIC "-//W3C//DTD SVG 1.1//EN" "http://www.w3.org/Graphics/SVG/1.1/DTD/svg11.dtd"><svg t="1521084524940" class="icon" style="" viewBox="0 0 1094 1024" version="1.1" xmlns="http://www.w3.org/2000/svg" p-id="877" xmlns:xlink="http://www.w3.org/1999/xlink" width="213.671875" height="200"><defs><style type="text/css"></style></defs><path d="M1047.785188 946.581545a32.674725 32.674725 0 0 1-32.674725 32.674724H79.855778a32.674725 32.674725 0 0 1-32.674725-32.674724V77.418455a32.674725 32.674725 0 0 1 32.674725-32.674724h935.254685a32.674725 32.674725 0 0 1 32.674725 32.674724v869.16309z" fill="#F0ECEC" p-id="878"></path><path d="M1015.110463 987.36716H79.855778c-22.487446 0-40.785616-18.29817-40.785616-40.789671V77.418455c0-22.487446 18.29817-40.785616 40.785616-40.785615h935.254685c22.491501 0 40.789671 18.29817 40.789672 40.785615v869.159034c0 22.491501-18.29817 40.789671-40.789672 40.789671zM79.855778 52.854622a24.592222 24.592222 0 0 0-24.563833 24.563833v869.159034a24.596277 24.596277 0 0 0 24.563833 24.567889h935.254685a24.596277 24.596277 0 0 0 24.567889-24.567889V77.418455a24.596277 24.596277 0 0 0-24.567889-24.563833H79.855778z" fill="#2C2C2C" p-id="879"></path><path d="M981.206939 834.318701a28.327287 28.327287 0 0 1-28.327288 28.327287H142.090646a28.327287 28.327287 0 0 1-28.327288-28.327287V80.829085a28.327287 28.327287 0 0 1 28.327288-28.327287h810.789005a28.327287 28.327287 0 0 1 28.327288 28.327287v753.489616z" fill="#FFFFFF" p-id="880"></path><path d="M539.374257 44.743731h16.221783v934.512538h-16.221783z" fill="#2C2C2C" p-id="881"></path><path d="M287.802804 253.076024l-48.665347-33.116769-48.665346 33.116769V44.743731h97.330693z" fill="#FB4E47" p-id="882"></path><path d="M295.913695 268.405608l-56.776238-38.63623-56.776237 38.63623V36.63284h113.552475v231.772768z m-56.776238-58.260531l40.554456 27.601363V52.854622h-81.108911v184.891818l40.554455-27.601363z" fill="#2C2C2C" p-id="883"></path><path d="M198.416729 52.501798h81.279239v13.180198H198.416729z" fill="#DC7D7B" p-id="884"></path><path d="M358.099897 457.571865h156.811913v29.369537H358.099897z" fill="#E0E0E0" p-id="885"></path><path d="M443.264253 523.813513h71.647557v29.369537h-71.647557z" fill="#B7B7B7" p-id="886"></path><path d="M239.137457 588.700642h275.770297v29.369536h-275.770297zM779.866234 646.827343h156.811913v29.369536h-156.811913z" fill="#E0E0E0" p-id="887"></path><path d="M865.03059 713.064935h71.647557v29.369536h-71.647557z" fill="#B7B7B7" p-id="888"></path><path d="M660.903794 777.952063h275.770297v29.369537h-275.770297zM589.260293 92.581766h156.811913v29.369537h-156.811913z" fill="#E0E0E0" p-id="889"></path><path d="M589.260293 158.823414h71.647557v29.369536h-71.647557z" fill="#B7B7B7" p-id="890"></path><path d="M589.260293 223.710543h275.770297v29.369536h-275.770297z" fill="#E0E0E0" p-id="891"></path><path d="M979.974083 296.891057l-8.775984-8.775984c-6.123723-6.123723-17.122091-5.04903-24.567889 2.396769l-12.92065 12.920649 30.947105 30.947105 12.92065-12.920649c7.445798-7.445798 8.520491-18.444166 2.396768-24.56789zM965.731358 335.458345l-36.620673-36.620674a12.166337 12.166337 0 0 0-17.207255 0l-10.633379 10.633379a12.166337 12.166337 0 0 0 0 17.2032l-3.824285-3.824286a12.166337 12.166337 0 0 0-17.207255 0l-391.80065 391.804705a12.166337 12.166337 0 0 0 0 17.207256l37.516927 37.516926-32.439509-32.439508-52.067865 57.830653 18.050788 18.050788-6.910479-6.910479c-0.738091 0.405545-1.447794 0.880032-2.076388 1.508626l-22.580721 22.58072a9.124752 9.124752 0 1 0 12.904428 12.904428l22.58072-22.580721a9.043644 9.043644 0 0 0 1.508626-2.076388l8.751652 8.751652 57.830653-52.067866 4.720539 4.720539a12.166337 12.166337 0 0 0 17.207255 0l391.80065-391.800649a12.166337 12.166337 0 0 0 0-17.207256l-3.824286-3.824285a12.117671 12.117671 0 0 0 8.6016 3.560681 12.142004 12.142004 0 0 0 8.6016-3.564736l10.633379-10.633379a12.166337 12.166337 0 0 0 0-17.207255l-3.516072-3.516071zM863.874788 481.657156l-4.663762-4.663762 73.306233-73.302178 4.663763 4.663762z" fill="#D6D6D6" p-id="892"></path><path d="M533.149149 775.587739a16.132562 16.132562 0 0 1-11.4688-4.748927l-47.793426-47.793426a16.112285 16.112285 0 0 1-4.752982-11.4688c0-4.335271 1.687065-8.406939 4.752982-11.472855l391.800649-391.80065a16.128507 16.128507 0 0 1 11.472856-4.748927c4.331216 0 8.402883 1.687065 11.4688 4.748927l47.78937 47.793426a16.10823 16.10823 0 0 1 4.752982 11.472855 16.104174 16.104174 0 0 1-4.752982 11.4688l-391.800649 391.804705a16.116341 16.116341 0 0 1-11.4688 4.744872z" fill="#17AF99" p-id="893"></path><path d="M877.160428 307.605545c3.114582 0 6.229164 1.188246 8.6016 3.564736l47.793425 47.793426a12.166337 12.166337 0 0 1 0 17.207255l-391.800649 391.80065c-2.376491 2.376491-5.491073 3.564737-8.6016 3.564737s-6.229164-1.188246-8.6016-3.564737l-47.793426-47.793426a12.166337 12.166337 0 0 1 0-17.207255l391.80065-391.80065a12.117671 12.117671 0 0 1 8.6016-3.564736m0-8.110892a20.155564 20.155564 0 0 0-14.340056 5.937173l-391.800649 391.800649a20.147453 20.147453 0 0 0-5.937173 14.340056 20.155564 20.155564 0 0 0 5.937173 14.340055l47.793426 47.793426c3.828341 3.828341 8.92198 5.937172 14.340055 5.937172s10.507659-2.108832 14.340055-5.937172l391.804705-391.80065a20.30156 20.30156 0 0 0 0-28.676055l-47.793425-47.793426a20.163675 20.163675 0 0 0-14.344111-5.941228z" fill="#2C2C2C" p-id="894"></path><path d="M933.555453 358.963707l-10.276499-10.276499L514.27105 757.695113l10.276499 10.276499a12.166337 12.166337 0 0 0 17.207255 0l391.800649-391.80065a12.166337 12.166337 0 0 0 0-17.207255z" fill="#159D89" p-id="895"></path><path d="M943.158749 357.820071a16.112285 16.112285 0 0 1-11.4688-4.752982l-40.144856-40.144855a16.10823 16.10823 0 0 1-4.752982-11.472856c0-4.331216 1.687065-8.406939 4.752982-11.4688l10.633378-10.633378a16.112285 16.112285 0 0 1 11.472856-4.752982c4.331216 0 8.402883 1.687065 11.4688 4.752982l40.144855 40.144855a16.238004 16.238004 0 0 1 0 22.941656l-10.633378 10.633378a16.112285 16.112285 0 0 1-11.472855 4.752982z" fill="#17AF99" p-id="896"></path><path d="M913.647271 278.649663c3.114582 0 6.229164 1.188246 8.6016 3.564737l40.144856 40.148911a12.166337 12.166337 0 0 1 0 17.207255l-10.633378 10.633379c-2.376491 2.376491-5.491073 3.564737-8.6016 3.564736s-6.225109-1.188246-8.6016-3.564736l-40.144856-40.144856a12.166337 12.166337 0 0 1 0-17.207255l10.633378-10.633379a12.10145 12.10145 0 0 1 8.6016-3.568792m0-8.110891a20.155564 20.155564 0 0 0-14.340055 5.937173l-10.633378 10.633378a20.147453 20.147453 0 0 0-5.937173 14.340055c0 5.418075 2.108832 10.507659 5.941228 14.340056l40.144856 40.144855a20.143398 20.143398 0 0 0 14.336 5.937172 20.155564 20.155564 0 0 0 14.340055-5.937172l10.633378-10.633378a20.297505 20.297505 0 0 0 0-28.676056l-40.144855-40.14891a20.15962 20.15962 0 0 0-14.340056-5.937173z" fill="#2C2C2C" p-id="897"></path><path d="M927.419564 280.507057l15.791905-15.791905c4.805703-4.805703 11.124087-7.55935 17.33703-7.55935 5.032808 0 9.639794 1.833061 12.965259 5.158527l8.775985 8.775984c7.689125 7.69318 6.614432 21.291089-2.400824 30.302289l-15.791905 15.791905-36.67745-36.67745z" fill="#C9563F" p-id="898"></path><path d="M960.548499 261.215303c3.828341 0 7.425521 1.301798 10.098059 3.970281l8.775985 8.775984c6.123723 6.123723 5.04903 17.122091-2.396769 24.567889l-12.920649 12.92065-30.947105-30.947105 12.920649-12.92065c4.197386-4.193331 9.522186-6.36705 14.46983-6.367049m0-8.110891c-7.28358 0-14.648269 3.18758-20.208285 8.747596l-12.92065 12.920649-5.7344 5.7344 5.7344 5.7344 30.947105 30.947105 5.7344 5.7344 5.7344-5.7344 12.92065-12.920649c4.927366-4.927366 7.989228-11.221418 8.625932-17.730408 0.681315-6.995644-1.585679-13.670907-6.225108-18.310337l-8.775985-8.775984c-4.091945-4.091945-9.716848-6.346772-15.832459-6.346772z" fill="#2C2C2C" p-id="899"></path><path d="M974.418123 286.334733m-5.95745 0a5.95745 5.95745 0 1 0 11.914899 0 5.95745 5.95745 0 1 0-11.914899 0Z" fill="#F9A698" p-id="900"></path><path d="M962.397782 322.359255l-3.524182-3.524182-27.840634 27.840634 3.524183 3.524182a12.166337 12.166337 0 0 0 17.207255 0l10.633378-10.633378a12.170392 12.170392 0 0 0 0-17.207256z" fill="#159D89" p-id="901"></path><path d="M920.829465 391.991255l4.663763 4.663763-73.306234 73.302178-4.663762-4.663762z" fill="#2C2C2C" p-id="902"></path><path d="M419.397956 788.013624l57.502163-63.869212 44.042138 44.038083-63.869211 57.506218z" fill="#17AF99" p-id="903"></path><path d="M477.054226 730.032919l37.995469 37.995469-57.830653 52.067865-32.232682-32.232681 52.067866-57.830653m-0.308214-11.777014l-5.718178 6.350828-52.067866 57.830653-5.150416 5.718178 5.442408 5.442408 32.232682 32.232681 5.442408 5.442408 5.718178-5.150415 57.830653-52.067866 6.350828-5.718178-6.042614-6.042614-37.995469-37.995469-6.042614-6.042614z" fill="#2C2C2C" p-id="904"></path><path d="M432.132055 803.006606c-0.738091 0.405545-1.447794 0.880032-2.076388 1.508626l-22.58072 22.58072a9.124752 9.124752 0 1 0 12.904427 12.904428l22.580721-22.580721a9.043644 9.043644 0 0 0 1.508626-2.076388l-12.336666-12.336665z" fill="#2C2C2C" p-id="905"></path><path d="M413.923105 844.700642a11.071366 11.071366 0 0 1-7.883786-3.26869 11.172752 11.172752 0 0 1 0-15.771627l22.584776-22.580721a10.665822 10.665822 0 0 1 2.538709-1.853339l1.330186-0.72998 14.490107 14.490107-0.742147 1.334242a11.006479 11.006479 0 0 1-1.849283 2.526542l-22.58072 22.580721a11.055145 11.055145 0 0 1-7.887842 3.272745z m17.945346-39.09044c-0.13383 0.105442-0.255493 0.22305-0.373101 0.336602l-22.588831 22.584776a7.109196 7.109196 0 0 0 0 10.037228c2.684705 2.684705 7.352523 2.676594 10.041283 0l22.580721-22.580721a5.19097 5.19097 0 0 0 0.340657-0.377156l-10.000729-10.000729z" fill="#2C2C2C" p-id="906"></path><path d="M545.648032 719.98758a12.166337 12.166337 0 0 1-17.207256 0l-2.388657-2.388657a12.166337 12.166337 0 0 1 0-17.207256l105.624079-105.624079a12.166337 12.166337 0 0 1 17.207255 0l2.388658 2.388658a12.166337 12.166337 0 0 1 0 17.207255l-105.624079 105.624079z" fill="#DDAD14" p-id="907"></path><path d="M537.042376 727.603707a16.112285 16.112285 0 0 1-11.4688-4.752982l-2.388657-2.388658a16.238004 16.238004 0 0 1 0-22.941655l105.624079-105.624079c6.123723-6.123723 16.805766-6.127778 22.941655 0l2.392713 2.396768a16.096063 16.096063 0 0 1 4.748927 11.464745 16.112285 16.112285 0 0 1-4.752982 11.4688l-105.624079 105.624079a16.100119 16.100119 0 0 1-11.472856 4.752982z m103.239477-132.341355a8.070337 8.070337 0 0 0-5.738455 2.372436l-105.624079 105.624079c-3.163248 3.163248-3.163248 8.309608 0 11.472856l2.388657 2.388657c3.065917 3.065917 8.406939 3.061861 11.472856 0l105.624079-105.624079c1.532958-1.532958 2.376491-3.568792 2.376491-5.7344s-0.843533-4.201442-2.376491-5.7344l-2.392713-2.396768a8.05817 8.05817 0 0 0-5.730345-2.368381z" fill="#2C2C2C" p-id="908"></path><path d="M571.939485 670.271873l3.345743 3.349798-31.30804 31.303984-3.345742-3.345742z" fill="#2C2C2C" p-id="909"></path><path d="M485.258392 794.376618l16.347501-14.717212-36.17863-36.182685-14.717212 16.347501z" fill="#2C2C2C" p-id="910"></path></svg>