<?xml version="1.0" encoding="utf-8"?>
<!-- Generator: Adobe Illustrator 17.0.0, SVG Export Plug-In . SVG Version: 6.00 Build 0)  -->
<!DOCTYPE svg PUBLIC "-//W3C//DTD SVG 1.1//EN" "http://www.w3.org/Graphics/SVG/1.1/DTD/svg11.dtd" [
	<!ENTITY st0 "fill:none;">
	<!ENTITY st1 "fill:#DEF9FF;">
	<!ENTITY st2 "fill:#FFF4E1;">
	<!ENTITY st3 "fill:#FFE3E3;">
	<!ENTITY st4 "fill:#C7EFC9;">
	<!ENTITY st5 "fill:#3EB6FF;">
	<!ENTITY st6 "fill:#FFBE5F;">
	<!ENTITY st7 "fill:#DFF7E0;">
	<!ENTITY st8 "fill:#FFFFFF;">
	<!ENTITY st9 "fill:#67C167;">
	<!ENTITY st10 "fill:#B63D00;">
]>
<svg version="1.1" id="图层_1" xmlns="http://www.w3.org/2000/svg" xmlns:xlink="http://www.w3.org/1999/xlink" x="0px" y="0px"
	 width="193.49px" height="193.49px" viewBox="0 0 193.49 193.49" style="enable-background:new 0 0 193.49 193.49;"
	 xml:space="preserve">
<rect x="0.393" y="-0.765" style="&st0;" width="193" height="193"/>
<g>
	<circle style="&st4;" cx="96.643" cy="95.485" r="86"/>
	<g>
		<path style="&st7;" d="M138.393,147.792c0,3.558-2.884,6.443-6.443,6.443H58.835c-3.558,0-6.443-2.884-6.443-6.443V42.677
			c0-3.558,2.884-6.443,6.443-6.443h73.115c3.558,0,6.443,2.884,6.443,6.443V147.792z"/>
		<path style="&st8;" d="M112.393,55.33c0,2.156-1.748,3.904-3.904,3.904H65.297c-2.156,0-3.904-1.748-3.904-3.904v-0.191
			c0-2.156,1.748-3.904,3.904-3.904h43.191c2.156,0,3.904,1.748,3.904,3.904V55.33z"/>
		<path style="&st8;" d="M128.393,79.189c0,1.13-0.916,2.045-2.045,2.045h-62.91c-1.13,0-2.045-0.916-2.045-2.045v-0.91
			c0-1.13,0.916-2.045,2.045-2.045h62.91c1.13,0,2.045,0.916,2.045,2.045V79.189z"/>
		<path style="&st8;" d="M128.393,90.189c0,1.13-0.916,2.045-2.045,2.045h-62.91c-1.13,0-2.045-0.916-2.045-2.045v-0.91
			c0-1.13,0.916-2.045,2.045-2.045h62.91c1.13,0,2.045,0.916,2.045,2.045V90.189z"/>
		<path style="&st8;" d="M128.393,100.189c0,1.13-0.916,2.045-2.045,2.045h-62.91c-1.13,0-2.045-0.916-2.045-2.045v-0.91
			c0-1.13,0.916-2.045,2.045-2.045h62.91c1.13,0,2.045,0.916,2.045,2.045V100.189z"/>
		<path style="&st8;" d="M128.393,111.189c0,1.13-0.916,2.045-2.045,2.045h-62.91c-1.13,0-2.045-0.916-2.045-2.045v-0.91
			c0-1.13,0.916-2.045,2.045-2.045h62.91c1.13,0,2.045,0.916,2.045,2.045V111.189z"/>
		<path style="&st8;" d="M128.393,121.189c0,1.13-0.916,2.045-2.045,2.045h-62.91c-1.13,0-2.045-0.916-2.045-2.045v-0.91
			c0-1.13,0.916-2.045,2.045-2.045h62.91c1.13,0,2.045,0.916,2.045,2.045V121.189z"/>
		<path style="&st8;" d="M128.393,132.189c0,1.13-0.916,2.045-2.045,2.045h-62.91c-1.13,0-2.045-0.916-2.045-2.045v-0.91
			c0-1.13,0.916-2.045,2.045-2.045h62.91c1.13,0,2.045,0.916,2.045,2.045V132.189z"/>
	</g>
	<path style="&st9;" d="M142.296,126.141l-15.207-15.207c6.875-9.723,5.967-23.266-2.739-31.971c-9.728-9.728-25.501-9.728-35.229,0
		c-9.728,9.728-9.728,25.501,0,35.229c8.706,8.705,22.248,9.614,31.971,2.739l15.207,15.207c1.552,1.552,4.069,1.552,5.622,0
		l0.375-0.375C143.848,130.211,143.848,127.694,142.296,126.141z M107.181,116.497c-10.788,0-19.533-8.745-19.533-19.533
		s8.745-19.533,19.533-19.533s19.533,8.745,19.533,19.533S117.969,116.497,107.181,116.497z"/>
</g>
</svg>
