<?xml version="1.0" encoding="utf-8"?>
<!-- Generator: Adobe Illustrator 17.0.0, SVG Export Plug-In . SVG Version: 6.00 Build 0)  -->
<!DOCTYPE svg PUBLIC "-//W3C//DTD SVG 1.1//EN" "http://www.w3.org/Graphics/SVG/1.1/DTD/svg11.dtd" [
	<!ENTITY st0 "fill:none;">
	<!ENTITY st1 "fill:#DEF9FF;">
	<!ENTITY st2 "fill:#FFF4E1;">
	<!ENTITY st3 "fill:#FFE3E3;">
	<!ENTITY st4 "fill:#C7EFC9;">
	<!ENTITY st5 "fill:#3EB6FF;">
	<!ENTITY st6 "fill:#FFBE5F;">
	<!ENTITY st7 "fill:#DFF7E0;">
	<!ENTITY st8 "fill:#FFFFFF;">
	<!ENTITY st9 "fill:#67C167;">
	<!ENTITY st10 "fill:#B63D00;">
]>
<svg version="1.1" id="图层_1" xmlns="http://www.w3.org/2000/svg" xmlns:xlink="http://www.w3.org/1999/xlink" x="0px" y="0px"
	 width="193.49px" height="193.49px" viewBox="0 0 193.49 193.49" style="enable-background:new 0 0 193.49 193.49;"
	 xml:space="preserve">
<rect x="0.393" y="0.235" style="&st0;" width="193" height="193"/>
<g>
	<circle style="&st3;" cx="97.143" cy="96.485" r="86"/>
	<g>
		<path style="&st10;" d="M66.834,64.376h23.73v-8.672h8.58v8.672h20.263v4.472c3.469-3.65,6.663-7.393,9.584-11.227l6.39,4.838
			c-4.687,6.389-10.041,12.322-16.064,17.798h19.807v8.215h-29.847c-4.017,2.861-7.85,5.386-11.501,7.576h36.327v7.758H88.74
			l-2.556,7.576h43.538c-0.609,13.204-2.04,21.114-4.29,23.731c-2.252,2.433-6.633,3.65-13.144,3.65
			c-3.773,0-7.576-0.214-11.409-0.639l-2.829-7.576c5.415,0.426,9.552,0.64,12.413,0.64c4.44,0,7.271-0.669,8.488-2.009
			c0.913-1.46,1.643-4.867,2.19-10.223H75.961l3.925-13.873c-6.694,2.86-13.388,5.294-20.08,7.302l-3.469-7.759
			c14.116-4.137,26.773-9.522,37.97-16.155H60.079v-8.215h30.485v-7.94h-23.73V64.376z M106.447,80.257
			c3.651-2.859,6.784-5.506,9.401-7.94H99.145v7.94H106.447z"/>
	</g>
</g>
</svg>
