<?xml version="1.0" encoding="utf-8"?>
<!-- Generator: Adobe Illustrator 17.0.0, SVG Export Plug-In . SVG Version: 6.00 Build 0)  -->
<!DOCTYPE svg PUBLIC "-//W3C//DTD SVG 1.1//EN" "http://www.w3.org/Graphics/SVG/1.1/DTD/svg11.dtd" [
	<!ENTITY st0 "fill:none;">
	<!ENTITY st1 "fill:#DEF9FF;">
	<!ENTITY st2 "fill:#FFF4E1;">
	<!ENTITY st3 "fill:#FFE3E3;">
	<!ENTITY st4 "fill:#C7EFC9;">
	<!ENTITY st5 "fill:#3EB6FF;">
	<!ENTITY st6 "fill:#FFBE5F;">
	<!ENTITY st7 "fill:#DFF7E0;">
	<!ENTITY st8 "fill:#FFFFFF;">
	<!ENTITY st9 "fill:#67C167;">
	<!ENTITY st10 "fill:#B63D00;">
]>
<svg version="1.1" id="图层_1" xmlns="http://www.w3.org/2000/svg" xmlns:xlink="http://www.w3.org/1999/xlink" x="0px" y="0px"
	 width="193.49px" height="193.49px" viewBox="0 0 193.49 193.49" style="enable-background:new 0 0 193.49 193.49;"
	 xml:space="preserve">
<rect x="0.393" y="0.235" style="&st0;" width="193" height="193"/>
<g>
	<circle style="&st1;" cx="96.396" cy="97.235" r="86"/>
	<g>
		<path style="&st5;" d="M78.393,63.087c0,2.843-2.304,5.147-5.147,5.147H72.54c-2.843,0-5.147-2.304-5.147-5.147V52.382
			c0-2.843,2.304-5.147,5.147-5.147h0.706c2.843,0,5.147,2.304,5.147,5.147V63.087z"/>
		<path style="&st5;" d="M140.263,57.235h-11.87v5.95c0,4.778-3.393,9.05-8.171,9.05h-0.219c-4.778,0-8.61-4.272-8.61-9.05v-5.95
			h-30v5.95c0,4.778-3.702,9.05-8.481,9.05h-0.219c-4.778,0-8.3-4.272-8.3-9.05v-5.95H53.528c-3.387,0-6.136,2.454-6.136,5.841
			v63.956c0,3.387,2.749,6.204,6.136,6.204h86.735c3.387,0,6.13-2.817,6.13-6.204V63.075
			C146.393,59.688,143.65,57.235,140.263,57.235z M139.393,126.235h-85v-46h85V126.235z"/>
		<path style="&st5;" d="M125.393,63.087c0,2.843-2.304,5.147-5.147,5.147h-0.706c-2.843,0-5.147-2.304-5.147-5.147V52.382
			c0-2.843,2.304-5.147,5.147-5.147h0.706c2.843,0,5.147,2.304,5.147,5.147V63.087z"/>
		<path style="&st5;" d="M112.783,90.115c-1.687-1.046-3.903-0.525-4.949,1.162l-12.835,15.855l-5.617-5.157
			c-1.258-1.536-3.522-1.762-5.058-0.504c-1.536,1.258-1.762,3.522-0.504,5.058l8.406,7.717c0.269,0.329,0.586,0.593,0.93,0.8
			c0.12,0.098,0.245,0.192,0.381,0.276c1.687,1.046,3.903,0.525,4.949-1.162l15.46-19.097
			C114.99,93.376,114.47,91.161,112.783,90.115z"/>
	</g>
</g>
</svg>
