<?xml version="1.0" standalone="no"?><!DOCTYPE svg PUBLIC "-//W3C//DTD SVG 1.1//EN" "http://www.w3.org/Graphics/SVG/1.1/DTD/svg11.dtd"><svg t="1522047228230" class="icon" style="" viewBox="0 0 1024 1024" version="1.1" xmlns="http://www.w3.org/2000/svg" p-id="4026" xmlns:xlink="http://www.w3.org/1999/xlink" width="32" height="32"><defs><style type="text/css"></style></defs><path d="M663 958.5H361c-79.7 0-144.5-64.8-144.5-144.5V380.5c0-13.8 11.2-25 25-25s25 11.2 25 25V814c0 52.1 42.4 94.5 94.5 94.5h302c52.1 0 94.5-42.4 94.5-94.5V208.3c0-52.1-42.4-94.5-94.5-94.5H361c-52.1 0-94.5 42.4-94.5 94.5v37.8c0 13.8-11.2 25-25 25s-25-11.2-25-25v-37.8c0-79.7 64.8-144.5 144.5-144.5h302c79.7 0 144.5 64.8 144.5 144.5V814c0 79.7-64.8 144.5-144.5 144.5z" p-id="4027"></path><path d="M512 807.4m-63.1 0a63.1 63.1 0 1 0 126.2 0 63.1 63.1 0 1 0-126.2 0Z" p-id="4028"></path><path d="M756.4 710.5H268.5c-13.8 0-25-11.2-25-25s11.2-25 25-25h487.9c13.8 0 25 11.2 25 25s-11.2 25-25 25z" p-id="4029"></path></svg>