<?xml version="1.0" standalone="no"?><!DOCTYPE svg PUBLIC "-//W3C//DTD SVG 1.1//EN" "http://www.w3.org/Graphics/SVG/1.1/DTD/svg11.dtd"><svg t="1522047237823" class="icon" style="" viewBox="0 0 1024 1024" version="1.1" xmlns="http://www.w3.org/2000/svg" p-id="4248" xmlns:xlink="http://www.w3.org/1999/xlink" width="32" height="32"><defs><style type="text/css"></style></defs><path d="M283.3 916.7c-6 0-11.9-2.1-16.7-6.4-10.3-9.2-11.1-25.1-1.8-35.3l87.1-96.7c37.6-41.8 91.4-65.7 147.6-65.7h309.7c53.5 0 96.9-43.5 96.9-96.9V321c0-53.5-43.5-96.9-96.9-96.9H214.8c-53.5 0-96.9 43.5-96.9 96.9v294.7c0 53.5 43.5 96.9 96.9 96.9h9.7c13.8 0 25 11.2 25 25s-11.2 25-25 25h-9.7c-81 0-146.9-65.9-146.9-146.9V321c0-81 65.9-146.9 146.9-146.9h594.5c81 0 146.9 65.9 146.9 146.9v294.7c0 81-65.9 146.9-146.9 146.9H499.6c-42.1 0-82.3 17.9-110.5 49.2L302 908.5c-5 5.5-11.8 8.2-18.7 8.2z" p-id="4249"></path><path d="M532.3 489.6H263c-13.8 0-25-11.2-25-25s11.2-25 25-25h269.3c13.8 0 25 11.2 25 25s-11.2 25-25 25zM753.3 489.6h-97.8c-13.8 0-25-11.2-25-25s11.2-25 25-25h97.8c13.8 0 25 11.2 25 25s-11.1 25-25 25z" p-id="4250"></path></svg>